<svg xmlns="http://www.w3.org/2000/svg" width="1200" height="630" viewBox="0 0 1200 630" role="img" aria-labelledby="title description">
  <title id="title">Documentation Lisible</title>
  <desc id="description">Comprendre. Rédiger. Personnaliser. Publier.</desc>
  <defs>
    <radialGradient id="glow" cx="0" cy="0" r="1" gradientTransform="translate(897 188) rotate(138) scale(508 402)" gradientUnits="userSpaceOnUse">
      <stop stop-color="#22C55E" stop-opacity=".22"/>
      <stop offset="1" stop-color="#22C55E" stop-opacity="0"/>
    </radialGradient>
    <pattern id="grid" width="42" height="42" patternUnits="userSpaceOnUse">
      <path d="M42 0H0V42" fill="none" stroke="#D9FBE2" stroke-opacity=".045"/>
    </pattern>
    <style>
      .display { fill: #F5F7F5; font-family: Inter, Arial, sans-serif; font-weight: 760; letter-spacing: -2.4px; }
      .label { font-family: Inter, Arial, sans-serif; font-weight: 650; }
      .copy { font-family: Inter, Arial, sans-serif; }
    </style>
  </defs>
  <rect width="1200" height="630" fill="#080D0A"/>
  <rect width="1200" height="630" fill="url(#grid)"/>
  <rect width="1200" height="630" fill="url(#glow)"/>
  <rect x="42" y="42" width="1116" height="546" rx="32" fill="none" stroke="#2B3A30"/>
  <g transform="translate(82 78)">
    <rect width="42" height="42" rx="11" fill="#F5F7F5"/>
    <path d="M11 13h20M11 21h15M11 29h10" stroke="#080D0A" stroke-width="4" stroke-linecap="round"/>
    <path d="M26 29h5" stroke="#22C55E" stroke-width="4" stroke-linecap="round"/>
    <text x="58" y="27" class="label" font-size="19" fill="#F5F7F5" letter-spacing=".3">LISIBLE</text>
    <text x="144" y="27" class="copy" font-size="16" fill="#7F8B82">/ DOCS</text>
  </g>
  <text x="82" y="186" class="label" font-size="14" fill="#22C55E" letter-spacing="2.2">GUIDE BILINGUE</text>
  <text x="82" y="270" class="display" font-size="66">Documentation</text>
<text x="82" y="342" class="display" font-size="66">Lisible</text>
  <text x="82" y="466" class="copy" font-size="23" fill="#A8B2AB">Comprendre. Rédiger. Personnaliser. Publier.</text>
  <g transform="translate(82 520)">
    <circle cx="6" cy="6" r="6" fill="#22C55E"/>
    <text x="24" y="12" class="label" font-size="15" fill="#D7DDD8" letter-spacing=".3">lisible.xsec.fr</text>
  </g>

    <g transform="translate(764 132)">
      <rect width="350" height="378" rx="24" fill="#101713" stroke="#2B3A30"/>
      <rect x="24" y="24" width="112" height="11" rx="5.5" fill="#22C55E"/>
      <path d="M24 59H326" stroke="#2B3A30"/>

          <g transform="translate(24 82)">
            <rect width="302" height="51" rx="12" fill="#131B16" stroke="#263129"/>
            <text x="17" y="31" class="label" font-size="15" fill="#B8C2BB">Architecture</text>
            <path d="M274 19l7 7-7 7" fill="none" stroke="#68736B" stroke-width="2" stroke-linecap="round" stroke-linejoin="round"/>
          </g>
          <g transform="translate(24 149)">
            <rect width="302" height="51" rx="12" fill="#131B16" stroke="#263129"/>
            <text x="17" y="31" class="label" font-size="15" fill="#B8C2BB">Rédaction MDX</text>
            <path d="M274 19l7 7-7 7" fill="none" stroke="#68736B" stroke-width="2" stroke-linecap="round" stroke-linejoin="round"/>
          </g>
          <g transform="translate(24 216)">
            <rect width="302" height="51" rx="12" fill="#17261C" stroke="#2C7A45"/>
            <text x="17" y="31" class="label" font-size="15" fill="#EAF8EE">SEO &amp; découverte</text>
            <path d="M274 19l7 7-7 7" fill="none" stroke="#22C55E" stroke-width="2" stroke-linecap="round" stroke-linejoin="round"/>
          </g>
          <g transform="translate(24 283)">
            <rect width="302" height="51" rx="12" fill="#131B16" stroke="#263129"/>
            <text x="17" y="31" class="label" font-size="15" fill="#B8C2BB">Déploiement</text>
            <path d="M274 19l7 7-7 7" fill="none" stroke="#68736B" stroke-width="2" stroke-linecap="round" stroke-linejoin="round"/>
          </g>
      <rect x="24" y="350" width="216" height="6" rx="3" fill="#263129"/>
    </g>
</svg>