<svg xmlns="http://www.w3.org/2000/svg" width="1200" height="630" viewBox="0 0 1200 630" role="img" aria-labelledby="title description">
  <title id="title">Six variantes. En direct.</title>
  <desc id="description">Testez chaque réglage sans compte ni installation.</desc>
  <defs>
    <radialGradient id="glow" cx="0" cy="0" r="1" gradientTransform="translate(897 188) rotate(138) scale(508 402)" gradientUnits="userSpaceOnUse">
      <stop stop-color="#22C55E" stop-opacity=".22"/>
      <stop offset="1" stop-color="#22C55E" stop-opacity="0"/>
    </radialGradient>
    <pattern id="grid" width="42" height="42" patternUnits="userSpaceOnUse">
      <path d="M42 0H0V42" fill="none" stroke="#D9FBE2" stroke-opacity=".045"/>
    </pattern>
    <style>
      .display { fill: #F5F7F5; font-family: Inter, Arial, sans-serif; font-weight: 760; letter-spacing: -2.4px; }
      .label { font-family: Inter, Arial, sans-serif; font-weight: 650; }
      .copy { font-family: Inter, Arial, sans-serif; }
    </style>
  </defs>
  <rect width="1200" height="630" fill="#080D0A"/>
  <rect width="1200" height="630" fill="url(#grid)"/>
  <rect width="1200" height="630" fill="url(#glow)"/>
  <rect x="42" y="42" width="1116" height="546" rx="32" fill="none" stroke="#2B3A30"/>
  <g transform="translate(82 78)">
    <rect width="42" height="42" rx="11" fill="#F5F7F5"/>
    <path d="M11 13h20M11 21h15M11 29h10" stroke="#080D0A" stroke-width="4" stroke-linecap="round"/>
    <path d="M26 29h5" stroke="#22C55E" stroke-width="4" stroke-linecap="round"/>
    <text x="58" y="27" class="label" font-size="19" fill="#F5F7F5" letter-spacing=".3">LISIBLE</text>
    <text x="144" y="27" class="copy" font-size="16" fill="#7F8B82">/ DOCS</text>
  </g>
  <text x="82" y="186" class="label" font-size="14" fill="#22C55E" letter-spacing="2.2">PREVIEWER INTERACTIF</text>
  <text x="82" y="270" class="display" font-size="66">Six variantes.</text>
<text x="82" y="342" class="display" font-size="66">En direct.</text>
  <text x="82" y="466" class="copy" font-size="23" fill="#A8B2AB">Testez chaque réglage sans compte ni installation.</text>
  <g transform="translate(82 520)">
    <circle cx="6" cy="6" r="6" fill="#22C55E"/>
    <text x="24" y="12" class="label" font-size="15" fill="#D7DDD8" letter-spacing=".3">lisible.xsec.fr</text>
  </g>

      <g transform="translate(716 120)">
        <rect width="418" height="408" rx="24" fill="#101713" stroke="#2B3A30"/>
        <rect x="18" y="18" width="260" height="372" rx="15" fill="#F4F7F4"/>
        <rect x="18" y="18" width="260" height="42" rx="15" fill="#E9EFEA"/>
        <circle cx="39" cy="39" r="5" fill="#22C55E"/>
        <path d="M57 35h61M57 43h38" stroke="#56655B" stroke-width="5" stroke-linecap="round"/>
        <rect x="40" y="91" width="74" height="7" rx="3.5" fill="#22C55E"/>
        <path d="M40 125h180M40 146h154" stroke="#17231B" stroke-width="12" stroke-linecap="round"/>
        <path d="M40 190h196" stroke="#C9D3CB"/>
        <rect x="40" y="219" width="87" height="91" rx="12" fill="#DCE6DE"/>
        <path d="M147 231h78M147 250h61M147 283h78M147 300h49" stroke="#859189" stroke-width="7" stroke-linecap="round"/>
        <rect x="40" y="339" width="196" height="8" rx="4" fill="#CBD5CD"/>
        <g transform="translate(296 22)">
          <text x="0" y="14" class="label" font-size="12" fill="#7F8B82" letter-spacing="1.5">SETTINGS</text>
          <g transform="translate(0 41)">
              <text x="0" y="13" class="label" font-size="12" fill="#A8B2AB">Variante</text>
              <rect y="23" width="102" height="35" rx="9" fill="#151F19" stroke="#2B3A30"/>
              <path d="M12 40.5h69" stroke="#D6DED8" stroke-width="6" stroke-linecap="round"/>
            </g><g transform="translate(0 111)">
              <text x="0" y="13" class="label" font-size="12" fill="#A8B2AB">Thème</text>
              <rect y="23" width="102" height="35" rx="9" fill="#151F19" stroke="#2B3A30"/>
              <path d="M12 40.5h69" stroke="#D6DED8" stroke-width="6" stroke-linecap="round"/>
            </g><g transform="translate(0 181)">
              <text x="0" y="13" class="label" font-size="12" fill="#A8B2AB">Couleur</text>
              <rect y="23" width="102" height="35" rx="9" fill="#151F19" stroke="#2B3A30"/>
              <circle cx="18" cy="40.5" r="8" fill="#22C55E"/><path d="M34 40.5h52" stroke="#566158" stroke-width="5" stroke-linecap="round"/>
            </g><g transform="translate(0 251)">
              <text x="0" y="13" class="label" font-size="12" fill="#A8B2AB">Couvertures</text>
              <rect y="23" width="102" height="35" rx="9" fill="#151F19" stroke="#2B3A30"/>
              <path d="M12 40.5h56" stroke="#22C55E" stroke-width="6" stroke-linecap="round"/>
            </g>
          <rect y="331" width="102" height="38" rx="10" fill="#22C55E"/>
          <path d="M24 350h54" stroke="#07110A" stroke-width="6" stroke-linecap="round"/>
        </g>
      </g>
</svg>